<svg id="svg" version="1.1" xmlns="http://www.w3.org/2000/svg" xmlns:xlink="http://www.w3.org/1999/xlink" width="400" height="86.6554054054054" viewBox="0, 0, 400,86.6554054054054"><g id="svgg"><path id="path0" d="M2.041 25.958 L 2.090 48.583 2.549 50.320 C 5.401 61.102,16.346 74.520,29.458 83.309 L 31.000 84.342 32.542 83.309 C 45.734 74.466,56.564 61.170,59.467 50.250 L 59.910 48.583 59.959 25.958 L 60.008 3.333 31.000 3.333 L 1.992 3.333 2.041 25.958 M58.417 26.250 C 58.417 50.064,58.494 48.363,57.231 52.167 C 54.311 60.962,45.336 71.852,34.000 80.359 C 31.027 82.590,31.102 82.568,29.785 81.655 C 17.139 72.888,6.873 60.242,4.110 50.026 L 3.585 48.083 3.538 26.675 C 3.512 14.900,3.528 5.168,3.573 5.049 C 3.641 4.872,8.694 4.840,31.037 4.875 L 58.417 4.917 58.417 26.250 M16.417 41.977 L 15.417 42.083 15.374 53.292 L 15.331 64.500 16.374 64.503 C 20.285 64.514,26.699 67.588,29.917 70.993 L 30.417 71.522 30.500 67.303 L 30.583 63.083 31.000 63.083 L 31.417 63.083 31.461 67.300 L 31.506 71.517 32.628 70.502 C 36.574 66.935,41.860 64.500,45.660 64.500 L 46.667 64.500 46.667 53.328 C 46.667 42.845,46.649 42.149,46.375 42.037 C 45.545 41.698,37.941 41.910,36.500 42.313 C 32.749 43.361,31.667 44.380,31.667 46.864 L 31.667 47.667 31.000 47.667 L 30.333 47.667 30.333 46.864 C 30.333 44.380,29.196 43.314,25.500 42.333 C 24.004 41.936,18.743 41.730,16.417 41.977 M12.000 53.963 L 12.000 62.779 12.606 63.556 C 12.939 63.984,13.277 64.333,13.357 64.333 C 13.439 64.333,13.484 60.161,13.460 54.792 L 13.417 45.250 12.708 45.199 L 12.000 45.148 12.000 53.963 M48.576 45.375 C 48.533 45.490,48.516 49.855,48.540 55.076 L 48.583 64.569 49.292 63.679 L 50.000 62.790 50.000 53.978 L 50.000 45.167 49.328 45.167 C 48.944 45.167,48.622 45.256,48.576 45.375 M28.763 48.852 C 29.312 49.058,29.977 49.477,30.358 49.858 L 31.012 50.512 31.547 49.946 C 34.053 47.300,38.075 48.669,38.303 52.245 C 38.427 54.192,37.299 55.836,33.647 59.028 C 32.297 60.209,31.149 61.267,31.096 61.379 C 31.020 61.540,30.980 61.540,30.904 61.379 C 30.851 61.267,29.703 60.209,28.353 59.028 C 23.987 55.211,22.924 53.160,24.064 50.750 C 25.000 48.770,26.704 48.082,28.763 48.852 M15.000 66.416 C 15.000 66.475,15.352 66.930,15.782 67.428 L 16.564 68.333 19.740 68.319 L 22.917 68.305 21.833 67.799 C 20.067 66.975,15.000 65.950,15.000 66.416 M44.812 66.506 C 43.354 66.676,41.429 67.214,40.224 67.787 L 39.250 68.250 42.330 68.296 L 45.410 68.341 46.198 67.462 C 47.316 66.215,47.314 66.214,44.812 66.506 " stroke="none" fill="#fafaf9" fill-rule="evenodd"></path><path id="path1" d="M30.713 7.792 C 30.622 8.227,29.906 11.321,29.123 14.667 C 28.339 18.012,27.605 21.175,27.492 21.695 C 27.171 23.170,27.098 23.202,26.240 22.250 C 24.262 20.056,24.067 18.723,25.443 16.784 C 26.113 15.840,26.083 15.754,24.963 15.421 C 20.671 14.146,16.832 19.002,18.146 24.042 C 18.307 24.660,18.376 25.167,18.298 25.167 C 18.221 25.167,15.666 23.605,12.620 21.696 C 5.942 17.510,6.582 17.894,6.756 18.183 C 7.010 18.606,13.255 28.378,14.399 30.143 C 15.725 32.189,15.832 31.971,13.397 32.193 C 10.111 32.492,8.343 31.424,8.335 29.135 C 8.333 28.479,8.078 28.422,7.268 28.897 C 3.542 31.081,4.486 37.121,8.931 39.531 C 10.568 40.419,13.500 41.094,13.500 40.583 C 13.500 40.446,13.639 40.333,13.809 40.333 C 15.060 40.333,18.606 39.927,18.706 39.772 C 18.964 39.374,18.771 39.333,16.625 39.328 C 10.853 39.312,7.660 37.395,7.220 33.680 C 7.099 32.655,7.089 32.656,8.037 33.564 C 9.198 34.677,10.098 34.915,12.490 34.740 C 16.525 34.446,17.391 34.619,18.822 36.008 L 19.496 36.663 19.921 35.825 C 20.154 35.364,20.292 34.897,20.226 34.785 C 20.160 34.674,18.509 32.390,16.556 29.708 C 14.604 27.027,13.064 24.833,13.135 24.833 C 13.205 24.833,15.434 26.400,18.087 28.316 L 22.911 31.798 23.622 31.288 C 24.486 30.667,24.496 30.830,23.521 29.695 C 19.862 25.436,19.074 21.515,21.356 18.917 C 22.342 17.793,22.417 17.838,22.417 19.558 C 22.418 21.487,22.555 21.750,24.679 23.917 C 26.633 25.910,26.991 26.586,26.996 28.292 C 26.998 28.956,27.019 29.497,27.042 29.493 C 29.010 29.145,28.758 29.769,29.931 22.333 C 30.444 19.079,30.894 16.385,30.932 16.347 C 31.094 16.182,31.198 16.731,32.083 22.423 C 33.144 29.238,33.104 29.085,33.860 29.212 C 34.166 29.263,34.537 29.353,34.683 29.411 C 34.912 29.502,34.964 29.297,35.050 27.967 C 35.372 23.002,37.824 19.445,41.080 19.219 C 42.072 19.150,42.885 19.405,42.351 19.618 C 40.753 20.254,39.941 22.092,39.892 25.185 C 39.845 28.120,39.586 28.936,38.360 30.015 L 37.600 30.684 38.092 31.094 C 38.362 31.320,38.698 31.572,38.838 31.655 C 39.030 31.768,40.278 30.948,43.912 28.319 C 46.563 26.402,48.791 24.833,48.864 24.833 C 48.937 24.833,47.457 26.940,45.576 29.515 C 41.134 35.593,41.576 34.836,41.993 35.653 C 42.422 36.494,42.353 36.501,43.436 35.512 C 46.951 32.299,51.177 31.826,53.904 34.340 C 54.790 35.156,54.912 35.575,54.208 35.379 C 52.472 34.896,50.768 35.511,48.577 37.411 C 46.702 39.037,45.673 39.542,44.231 39.542 C 43.646 39.542,43.167 39.610,43.167 39.693 C 43.167 39.925,43.422 39.972,45.735 40.161 C 48.183 40.360,47.896 40.453,49.799 38.854 C 52.227 36.814,53.498 36.631,55.334 38.057 L 56.347 38.844 56.757 37.917 C 58.552 33.859,54.015 29.514,48.904 30.396 C 48.092 30.536,47.410 30.632,47.388 30.611 C 47.345 30.567,47.269 30.687,51.856 23.500 C 55.803 17.316,55.437 17.917,55.151 18.089 C 55.022 18.166,52.104 19.990,48.667 22.141 C 41.161 26.838,41.883 26.559,42.016 24.718 C 42.217 21.934,43.163 20.781,45.438 20.546 C 46.467 20.440,46.552 20.241,46.012 19.202 C 43.991 15.308,37.675 15.954,35.083 20.318 C 34.412 21.449,34.493 21.585,33.633 17.875 C 30.787 5.599,31.009 6.367,30.713 7.792 M29.333 31.448 C 25.466 32.096,22.006 35.527,21.400 39.315 L 21.291 40.000 22.207 40.000 C 24.549 40.000,27.954 40.936,29.837 42.097 L 31.000 42.814 32.163 42.097 C 34.046 40.936,37.451 40.000,39.793 40.000 L 40.709 40.000 40.600 39.315 C 39.794 34.276,34.505 30.583,29.333 31.448 M4.876 44.872 C 5.014 50.011,6.460 54.362,9.682 59.332 L 10.493 60.583 10.497 52.125 L 10.500 43.667 12.008 43.667 L 13.517 43.667 13.467 42.708 L 13.417 41.750 9.103 41.705 L 4.790 41.661 4.876 44.872 M48.611 41.778 C 48.550 41.839,48.500 42.289,48.500 42.778 L 48.500 43.667 50.000 43.667 L 51.500 43.667 51.504 52.125 L 51.509 60.583 52.422 59.167 C 55.610 54.222,57.167 49.359,57.167 44.349 L 57.167 41.667 52.944 41.667 C 50.622 41.667,48.672 41.717,48.611 41.778 M18.308 70.131 C 19.484 71.782,30.218 80.833,31.000 80.833 C 31.781 80.833,42.189 72.059,43.603 70.208 L 44.017 69.667 40.367 69.667 L 36.717 69.667 35.983 70.192 C 34.871 70.990,34.226 71.557,32.545 73.214 L 31.007 74.731 29.462 73.210 C 27.893 71.665,27.547 71.362,26.112 70.276 L 25.308 69.667 21.643 69.667 L 17.977 69.667 18.308 70.131 " stroke="none" fill="#fae21c" fill-rule="evenodd"></path><path id="path2" d="M304.217 0.262 C 285.746 2.500,274.887 14.598,276.137 31.542 C 276.679 38.895,279.153 44.904,283.421 49.240 C 284.623 50.461,287.103 52.500,287.387 52.500 C 287.445 52.500,287.889 52.753,288.372 53.061 C 291.403 54.998,295.845 56.638,299.772 57.269 C 300.768 57.429,301.621 57.612,301.667 57.675 C 302.085 58.254,312.668 58.252,313.417 57.673 C 313.508 57.602,313.996 57.492,314.500 57.428 C 316.748 57.143,325.237 55.209,328.458 54.248 L 329.333 53.987 329.333 46.281 C 329.333 37.351,329.179 38.099,331.172 37.405 C 332.347 36.996,332.509 36.891,332.439 36.593 C 332.394 36.404,332.309 35.912,332.249 35.500 L 332.141 34.750 322.154 34.750 L 312.167 34.750 312.167 36.042 C 312.167 36.752,312.223 37.335,312.292 37.336 C 316.906 37.445,320.825 38.179,321.257 39.014 C 321.555 39.589,321.615 50.164,321.327 51.201 C 320.433 54.419,308.884 55.401,301.071 52.924 C 291.226 49.801,285.189 40.712,284.878 28.544 C 284.435 11.230,294.865 1.965,312.709 3.822 C 318.758 4.451,323.183 6.386,324.740 9.083 C 325.209 9.896,325.223 9.989,325.296 12.792 L 325.371 15.667 326.664 15.667 L 327.957 15.667 328.070 13.792 C 328.282 10.295,328.849 6.483,329.580 3.645 C 329.689 3.223,329.648 3.193,328.471 2.832 C 320.604 0.413,311.194 -0.584,304.217 0.262 M79.667 2.708 C 79.667 3.936,79.685 4.000,80.042 4.001 C 81.845 4.009,85.138 4.379,85.729 4.641 C 87.414 5.388,87.330 4.115,87.331 28.936 C 87.331 51.862,87.367 50.928,86.441 52.326 C 86.135 52.789,85.633 53.156,84.513 53.734 L 83.000 54.516 83.000 55.550 L 83.000 56.583 102.908 56.583 C 115.968 56.583,122.869 56.526,122.969 56.417 C 123.195 56.171,124.667 44.529,124.667 42.992 L 124.667 42.500 123.280 42.500 L 121.894 42.500 121.179 45.542 C 119.646 52.057,119.712 51.974,115.667 52.491 C 111.462 53.029,98.673 53.140,96.375 52.659 L 95.333 52.441 95.335 30.762 C 95.336 8.839,95.385 6.842,95.953 5.701 C 96.532 4.538,97.327 4.306,101.542 4.069 L 103.333 3.968 103.333 2.692 L 103.333 1.417 91.500 1.417 L 79.667 1.417 79.667 2.708 M128.167 2.708 C 128.167 3.936,128.185 4.000,128.542 4.001 C 130.427 4.009,133.637 4.378,134.278 4.662 C 135.967 5.409,135.988 5.711,135.988 29.000 C 135.988 54.704,136.206 53.281,132.202 53.686 C 131.312 53.775,130.265 53.888,129.875 53.935 L 129.167 54.020 129.167 55.302 L 129.167 56.583 147.042 56.583 C 156.873 56.583,166.241 56.565,167.859 56.542 L 170.801 56.500 170.899 54.708 C 171.072 51.523,171.505 47.181,171.845 45.225 C 172.245 42.921,172.285 42.999,170.698 43.003 C 169.063 43.006,169.105 42.964,168.848 44.833 C 168.328 48.619,167.252 51.508,166.167 52.031 C 164.375 52.894,148.629 53.364,144.958 52.665 L 143.833 52.451 143.833 41.562 L 143.833 30.673 144.292 30.549 C 145.140 30.318,157.455 30.398,158.917 30.643 C 161.513 31.078,161.575 31.152,161.831 34.131 C 161.924 35.205,162.042 36.477,162.095 36.958 L 162.191 37.833 163.554 37.833 L 164.917 37.833 164.917 28.750 L 164.917 19.667 163.552 19.667 L 162.187 19.667 162.096 20.375 C 162.046 20.765,161.921 21.946,161.818 23.000 C 161.538 25.872,161.450 25.960,158.504 26.325 C 156.974 26.515,146.791 26.564,144.958 26.391 L 143.833 26.285 143.833 15.916 L 143.833 5.546 144.792 5.329 C 148.101 4.578,160.773 5.072,164.342 6.091 C 166.600 6.735,166.500 6.527,166.500 10.572 L 166.500 13.833 168.057 13.833 L 169.614 13.833 169.727 11.042 C 169.853 7.920,169.988 6.674,170.521 3.708 C 170.723 2.585,170.832 1.610,170.764 1.542 C 170.695 1.473,161.083 1.417,149.403 1.417 L 128.167 1.417 128.167 2.708 M177.667 2.692 L 177.667 3.968 179.458 4.072 C 184.515 4.365,184.971 4.651,185.326 7.750 C 185.559 9.790,185.559 48.210,185.326 50.250 C 185.011 53.002,184.533 53.445,181.623 53.692 C 180.593 53.779,179.281 53.890,178.708 53.938 L 177.667 54.027 177.667 55.305 L 177.667 56.583 189.500 56.583 L 201.333 56.583 201.333 55.306 L 201.333 54.028 200.042 53.929 C 192.911 53.381,193.500 54.659,193.500 39.744 L 193.500 29.383 194.875 29.276 C 196.666 29.136,221.667 29.136,223.458 29.276 L 224.833 29.383 224.828 39.316 C 224.821 53.650,224.900 53.358,220.956 53.692 C 219.926 53.779,218.615 53.890,218.042 53.938 L 217.000 54.027 217.000 55.305 L 217.000 56.583 228.833 56.583 L 240.667 56.583 240.667 55.305 L 240.667 54.027 239.625 53.935 C 239.052 53.884,237.871 53.799,237.000 53.744 C 234.441 53.584,233.694 53.213,233.148 51.833 C 232.850 51.081,232.710 8.984,232.999 7.109 C 233.388 4.585,234.670 4.040,240.292 4.002 C 240.648 4.000,240.667 3.936,240.667 2.708 L 240.667 1.417 228.833 1.417 L 217.000 1.417 217.000 2.692 L 217.000 3.968 218.792 4.072 C 225.086 4.437,224.833 3.895,224.833 17.037 L 224.833 25.167 209.167 25.167 L 193.500 25.167 193.500 16.531 C 193.500 5.893,193.576 5.316,195.074 4.654 C 195.709 4.373,198.958 4.008,200.875 4.001 L 201.333 4.000 201.333 2.708 L 201.333 1.417 189.500 1.417 L 177.667 1.417 177.667 2.692 M247.167 2.692 L 247.167 3.968 248.958 4.069 C 254.197 4.364,254.635 4.631,254.992 7.750 C 255.226 9.790,255.226 48.210,254.992 50.250 C 254.675 53.025,254.202 53.455,251.201 53.696 C 250.128 53.782,248.781 53.892,248.208 53.940 L 247.167 54.027 247.167 55.305 L 247.167 56.583 259.000 56.583 L 270.833 56.583 270.833 55.305 L 270.833 54.027 269.792 53.938 C 269.219 53.890,267.913 53.779,266.889 53.693 C 264.234 53.468,263.717 53.088,263.349 51.094 C 263.094 49.710,263.094 8.290,263.349 6.909 C 263.775 4.602,265.193 4.022,270.458 4.001 C 270.815 4.000,270.833 3.936,270.833 2.708 L 270.833 1.417 259.000 1.417 L 247.167 1.417 247.167 2.692 M336.833 2.708 L 336.833 4.000 337.292 4.001 C 341.600 4.015,343.640 4.541,344.215 5.785 L 344.583 6.583 344.632 28.250 C 344.681 50.398,344.655 51.487,344.050 52.512 C 343.496 53.449,343.080 53.548,338.125 53.929 L 336.833 54.028 336.833 55.306 L 336.833 56.583 348.667 56.583 L 360.500 56.583 360.500 55.305 L 360.500 54.027 359.458 53.938 C 358.885 53.890,357.574 53.779,356.544 53.692 C 352.616 53.359,352.674 53.577,352.670 38.983 L 352.667 29.383 354.042 29.276 C 355.844 29.135,380.666 29.135,382.641 29.275 L 384.167 29.383 384.163 38.067 C 384.157 53.482,384.186 53.363,380.263 53.694 C 379.248 53.780,377.948 53.890,377.375 53.938 L 376.333 54.027 376.333 55.305 L 376.333 56.583 388.083 56.583 L 399.833 56.583 399.833 55.305 L 399.833 54.027 398.792 53.938 C 398.219 53.890,396.919 53.780,395.904 53.694 C 392.867 53.438,392.456 52.992,392.152 49.629 C 391.904 46.891,392.045 7.699,392.307 6.583 C 392.761 4.646,393.466 4.337,398.042 4.072 L 399.833 3.968 399.833 2.692 L 399.833 1.417 388.083 1.417 L 376.333 1.417 376.333 2.708 C 376.333 3.936,376.352 4.000,376.708 4.001 C 378.593 4.009,381.804 4.378,382.444 4.662 C 383.977 5.340,384.208 7.210,384.130 18.333 L 384.083 25.083 368.375 25.126 L 352.667 25.168 352.670 17.293 C 352.674 3.919,352.439 4.435,358.708 4.072 L 360.500 3.968 360.500 2.692 L 360.500 1.417 348.667 1.417 L 336.833 1.417 336.833 2.708 M0.006 23.458 C 0.011 45.274,0.060 47.531,0.587 50.078 C 1.920 56.526,6.501 64.591,12.422 70.917 C 13.109 71.650,14.251 72.878,14.960 73.646 C 17.485 76.379,22.291 80.619,25.167 82.651 C 28.214 84.803,30.778 86.500,30.984 86.500 C 31.258 86.500,33.635 84.953,35.598 83.497 C 36.431 82.879,37.282 82.283,37.489 82.173 C 38.847 81.446,47.491 73.569,48.189 72.423 C 48.355 72.151,49.043 71.363,49.719 70.673 C 54.576 65.708,59.045 58.327,60.828 52.325 C 61.964 48.502,61.896 50.156,61.958 24.625 L 62.014 1.500 31.007 1.500 L 0.000 1.500 0.006 23.458 M60.162 24.875 C 60.156 47.334,60.146 47.669,59.398 50.667 C 57.042 60.111,47.821 72.029,35.917 81.017 C 33.878 82.556,31.243 84.333,31.000 84.333 C 30.166 84.333,22.985 78.761,19.011 75.029 C 10.110 66.671,4.385 58.025,2.381 49.917 L 1.929 48.083 1.876 25.708 L 1.823 3.333 30.995 3.333 L 60.167 3.333 60.162 24.875 M3.711 26.542 C 3.772 50.699,3.668 48.621,4.999 52.417 C 8.264 61.728,17.682 72.857,29.344 81.182 L 31.000 82.365 32.656 81.182 C 45.598 71.942,55.057 60.129,57.790 49.793 L 58.242 48.083 58.292 26.542 L 58.343 5.000 31.000 5.000 L 3.657 5.000 3.711 26.542 M31.167 6.584 C 31.167 6.731,34.333 20.573,34.421 20.813 C 34.474 20.955,34.747 20.669,35.140 20.062 C 37.849 15.869,44.027 15.247,45.954 18.973 C 46.736 20.486,46.707 20.602,45.507 20.710 C 43.300 20.911,42.348 22.008,42.205 24.517 C 42.114 26.113,42.138 26.159,42.808 25.690 C 43.698 25.066,55.309 17.833,55.421 17.833 C 55.635 17.833,55.371 18.264,51.510 24.224 C 46.910 31.323,47.225 30.688,48.448 30.400 C 53.998 29.094,59.232 34.242,56.658 38.475 L 56.335 39.005 55.433 38.271 C 53.427 36.637,52.329 36.815,49.417 39.247 L 48.083 40.361 45.917 40.252 C 43.440 40.127,43.128 40.067,43.199 39.725 C 43.237 39.543,43.534 39.469,44.335 39.440 C 45.772 39.389,46.629 38.957,48.360 37.409 C 50.377 35.605,51.441 35.114,53.157 35.191 C 54.705 35.262,54.702 35.265,53.875 34.459 C 51.321 31.973,47.010 32.457,43.500 35.625 C 42.327 36.684,42.430 36.680,41.927 35.688 L 41.516 34.876 43.760 31.813 C 48.847 24.870,48.916 24.771,48.490 25.105 C 47.543 25.845,39.401 31.715,39.229 31.781 C 39.026 31.859,37.499 30.887,37.500 30.680 C 37.501 30.627,37.727 30.433,38.004 30.250 C 39.345 29.362,39.817 28.062,39.826 25.227 C 39.836 22.328,40.067 21.589,41.378 20.269 L 42.353 19.287 41.218 19.369 C 37.820 19.614,35.488 22.919,35.069 28.085 C 34.953 29.511,34.949 29.523,34.540 29.421 C 34.313 29.364,33.906 29.273,33.634 29.219 C 32.969 29.086,33.002 29.215,31.987 22.708 C 31.498 19.569,31.055 17.000,31.004 17.000 C 30.952 17.000,30.513 19.569,30.028 22.708 C 28.966 29.587,29.003 29.504,27.029 29.500 C 26.967 29.500,26.914 28.918,26.911 28.208 C 26.904 26.490,26.572 25.888,24.512 23.857 C 22.527 21.899,22.069 20.959,22.230 19.178 L 22.326 18.106 21.674 18.743 C 19.250 21.110,19.900 25.343,23.297 29.325 C 24.628 30.885,24.590 30.713,23.741 31.322 C 23.326 31.620,22.896 31.829,22.785 31.786 C 22.622 31.723,14.386 25.790,13.510 25.105 C 13.124 24.803,13.323 25.088,17.024 30.138 L 20.484 34.859 20.036 35.804 C 19.790 36.325,19.570 36.780,19.548 36.816 C 19.526 36.852,19.199 36.563,18.822 36.174 C 17.475 34.787,16.552 34.602,12.489 34.904 C 10.170 35.076,9.285 34.856,8.097 33.810 L 7.333 33.138 7.333 33.632 C 7.333 37.059,10.871 39.167,16.625 39.167 L 19.022 39.167 18.905 39.542 C 18.734 40.091,18.667 40.109,16.362 40.235 C 13.926 40.369,13.500 40.448,13.500 40.768 C 13.500 41.061,13.523 41.063,11.833 40.660 C 4.996 39.031,2.128 31.375,7.375 28.761 L 8.228 28.335 8.501 29.422 C 9.114 31.857,9.977 32.312,13.556 32.089 L 15.466 31.969 13.997 29.662 C 13.189 28.393,11.162 25.248,9.492 22.672 C 7.822 20.096,6.496 17.948,6.546 17.898 C 6.615 17.829,14.787 22.842,17.821 24.814 C 18.216 25.071,18.223 25.067,18.111 24.664 C 16.557 19.077,20.507 13.869,25.133 15.406 C 26.214 15.765,26.307 15.917,25.785 16.472 C 24.570 17.765,24.321 19.395,25.142 20.676 C 25.745 21.616,26.936 22.946,27.064 22.822 C 27.145 22.744,30.833 6.856,30.833 6.587 C 30.833 6.539,30.908 6.500,31.000 6.500 C 31.092 6.500,31.167 6.538,31.167 6.584 M33.571 31.611 C 36.777 32.412,39.611 35.196,40.570 38.489 C 41.001 39.969,41.020 39.941,39.458 40.073 C 36.493 40.323,33.729 41.152,31.993 42.312 L 31.000 42.975 30.007 42.312 C 28.268 41.150,25.507 40.323,22.531 40.072 L 21.145 39.955 21.259 39.269 C 22.168 33.804,27.951 30.208,33.571 31.611 M13.500 42.750 L 13.500 43.833 12.083 43.833 L 10.667 43.833 10.667 52.250 C 10.667 57.194,10.604 60.667,10.515 60.667 C 10.300 60.667,8.513 57.727,7.520 55.742 C 5.524 51.749,4.844 49.093,4.714 44.792 L 4.620 41.667 9.060 41.667 L 13.500 41.667 13.500 42.750 M24.818 42.102 C 28.814 42.923,30.245 44.046,30.452 46.522 C 30.547 47.647,30.556 47.667,31.024 47.667 C 31.486 47.667,31.500 47.641,31.507 46.792 C 31.519 45.416,31.965 44.342,32.750 43.801 C 35.216 42.100,39.852 41.402,45.375 41.899 L 46.833 42.030 46.833 53.348 L 46.833 64.667 45.768 64.667 C 41.805 64.667,36.946 66.838,32.750 70.485 C 32.108 71.043,31.527 71.499,31.458 71.499 C 31.390 71.500,31.333 69.625,31.333 67.333 C 31.333 63.278,31.324 63.167,31.000 63.167 C 30.676 63.167,30.667 63.278,30.667 67.333 C 30.667 69.625,30.605 71.500,30.530 71.500 C 30.454 71.500,29.873 71.050,29.238 70.499 C 24.981 66.809,20.205 64.667,16.235 64.667 L 15.167 64.667 15.167 53.348 L 15.167 42.030 16.542 41.929 C 17.298 41.874,18.254 41.800,18.667 41.765 C 20.051 41.648,23.541 41.839,24.818 42.102 M57.286 44.792 C 57.155 49.120,56.492 51.680,54.423 55.834 C 53.509 57.670,51.680 60.667,51.474 60.667 C 51.397 60.667,51.333 56.879,51.333 52.250 L 51.333 43.833 49.917 43.833 L 48.500 43.833 48.500 42.750 L 48.500 41.667 52.940 41.667 L 57.380 41.667 57.286 44.792 M13.500 54.854 C 13.500 65.791,13.587 65.095,12.415 63.497 L 11.833 62.705 11.833 53.964 C 11.833 49.156,11.883 45.172,11.944 45.111 C 12.006 45.050,12.381 45.000,12.778 45.000 L 13.500 45.000 13.500 54.854 M50.126 53.899 L 50.170 62.715 49.477 63.613 C 49.096 64.106,48.721 64.550,48.642 64.598 C 48.564 64.647,48.500 60.253,48.500 54.834 L 48.500 44.982 49.292 45.033 L 50.083 45.083 50.126 53.899 M295.991 66.232 C 293.318 67.261,292.256 68.715,292.266 71.333 C 292.277 74.035,293.239 74.850,297.188 75.507 C 300.702 76.092,301.846 77.081,301.316 79.074 C 300.409 82.484,294.029 82.708,293.705 79.341 C 293.626 78.513,293.616 78.500,293.062 78.500 L 292.500 78.500 292.498 79.792 C 292.497 80.502,292.451 81.360,292.395 81.697 L 292.293 82.312 293.522 82.692 C 298.404 84.205,303.340 81.819,303.629 77.807 C 303.839 74.894,302.850 73.962,298.879 73.330 C 295.502 72.793,294.500 72.095,294.500 70.282 C 294.500 66.721,300.822 66.028,301.254 69.542 C 301.366 70.453,301.395 70.500,301.839 70.500 C 302.379 70.500,302.420 70.377,302.590 68.226 L 302.698 66.869 301.724 66.492 C 300.499 66.018,296.964 65.858,295.991 66.232 M386.125 66.293 L 384.833 66.553 384.833 67.110 C 384.833 67.616,384.878 67.667,385.328 67.667 C 385.645 67.667,386.045 67.860,386.449 68.208 C 387.935 69.492,387.997 69.583,390.434 74.000 L 391.583 76.083 391.583 78.639 C 391.583 81.581,391.542 81.667,390.135 81.667 C 389.355 81.667,389.333 81.680,389.333 82.167 L 389.333 82.667 392.833 82.667 L 396.333 82.667 396.333 82.167 C 396.333 81.689,396.301 81.667,395.620 81.667 C 394.233 81.667,394.166 81.523,394.170 78.532 C 394.174 75.563,394.154 75.636,395.763 72.901 C 396.663 71.373,399.474 67.472,399.837 67.247 C 400.493 66.842,399.982 66.333,398.919 66.333 L 397.838 66.333 397.261 67.458 C 396.353 69.231,393.401 74.086,393.251 74.055 C 393.176 74.040,392.853 73.515,392.532 72.889 C 390.938 69.773,389.612 67.485,388.992 66.781 C 388.214 65.897,388.146 65.885,386.125 66.293 M19.250 66.754 C 20.654 67.110,23.000 68.041,23.000 68.243 C 23.000 68.293,21.516 68.333,19.703 68.333 L 16.405 68.333 15.620 67.399 C 15.188 66.886,14.879 66.394,14.933 66.306 C 15.083 66.065,17.530 66.319,19.250 66.754 M47.073 66.316 C 47.124 66.398,46.812 66.886,46.380 67.399 L 45.595 68.333 42.297 68.333 C 40.484 68.333,39.000 68.293,39.000 68.243 C 39.000 67.507,46.676 65.675,47.073 66.316 M82.667 66.813 C 82.667 67.274,82.702 67.295,83.589 67.369 C 84.986 67.484,84.906 67.128,85.000 73.716 C 85.093 80.297,85.167 80.714,86.435 81.827 C 88.095 83.285,93.083 83.585,95.493 82.371 C 97.751 81.234,98.035 80.266,98.156 73.300 C 98.261 67.206,98.185 67.526,99.560 67.384 C 100.461 67.291,100.500 67.267,100.500 66.810 L 100.500 66.333 97.583 66.333 L 94.667 66.333 94.667 66.810 C 94.667 67.260,94.715 67.293,95.529 67.389 C 96.809 67.541,96.750 67.271,96.750 72.967 C 96.750 80.343,96.236 81.254,92.083 81.246 C 88.008 81.239,87.625 80.498,87.701 72.780 C 87.756 67.252,87.687 67.525,89.060 67.384 C 89.961 67.291,90.000 67.267,90.000 66.810 L 90.000 66.333 86.333 66.333 L 82.667 66.333 82.667 66.813 M120.500 66.810 C 120.500 67.261,120.547 67.293,121.375 67.390 C 122.727 67.551,122.667 67.216,122.667 74.532 C 122.667 81.942,122.721 81.667,121.250 81.667 C 120.528 81.667,120.500 81.685,120.500 82.167 L 120.500 82.667 123.500 82.667 L 126.500 82.667 126.500 82.167 C 126.500 81.674,126.487 81.667,125.615 81.667 C 123.998 81.667,124.091 82.040,124.028 75.329 L 123.973 69.464 125.012 70.607 C 125.584 71.236,126.171 71.945,126.317 72.183 C 127.719 74.465,134.801 82.798,135.417 82.889 C 135.783 82.943,136.308 83.033,136.583 83.089 L 137.083 83.192 137.083 75.602 C 137.083 66.958,136.978 67.547,138.557 67.384 C 139.461 67.291,139.500 67.267,139.500 66.810 L 139.500 66.333 136.500 66.333 L 133.500 66.333 133.500 66.810 C 133.500 67.261,133.547 67.293,134.375 67.390 C 135.718 67.550,135.667 67.293,135.667 73.819 C 135.667 79.427,135.659 79.566,135.358 79.245 C 134.960 78.821,130.229 72.957,129.580 72.083 C 129.308 71.717,129.047 71.379,129.000 71.333 C 128.953 71.287,128.693 70.950,128.422 70.583 C 128.151 70.217,127.265 69.110,126.453 68.125 L 124.975 66.333 122.738 66.333 L 120.500 66.333 120.500 66.810 M159.500 66.812 C 159.500 67.266,159.544 67.295,160.346 67.372 C 161.829 67.515,161.750 67.108,161.750 74.603 C 161.750 82.107,161.840 81.667,160.301 81.667 C 159.522 81.667,159.500 81.680,159.500 82.167 L 159.500 82.667 163.083 82.667 L 166.667 82.667 166.667 82.167 C 166.667 81.679,166.647 81.667,165.845 81.667 C 164.428 81.667,164.500 82.049,164.500 74.509 C 164.500 67.026,164.410 67.508,165.839 67.370 C 166.621 67.295,166.667 67.264,166.667 66.812 L 166.667 66.333 163.083 66.333 L 159.500 66.333 159.500 66.812 M186.500 66.833 C 186.500 67.292,186.547 67.333,187.074 67.333 C 187.940 67.333,188.365 67.864,189.210 70.000 C 189.627 71.054,190.792 73.979,191.798 76.500 C 192.804 79.021,193.755 81.477,193.910 81.958 L 194.193 82.833 194.917 82.833 C 195.607 82.833,195.650 82.804,195.839 82.208 C 196.120 81.325,199.880 72.101,200.000 72.000 C 200.055 71.954,200.457 71.055,200.892 70.001 C 201.747 67.935,202.172 67.333,202.779 67.333 C 203.099 67.333,203.167 67.246,203.167 66.833 L 203.167 66.333 200.500 66.333 L 197.833 66.333 197.833 66.833 C 197.833 67.286,197.885 67.334,198.375 67.336 C 200.017 67.343,200.018 67.399,198.450 71.500 C 197.731 73.379,196.793 75.833,196.366 76.953 C 195.939 78.073,195.537 78.935,195.474 78.869 C 195.374 78.765,194.360 76.170,191.798 69.457 C 191.023 67.425,191.013 67.471,192.250 67.368 C 193.131 67.295,193.167 67.273,193.167 66.813 L 193.167 66.333 189.833 66.333 L 186.500 66.333 186.500 66.833 M223.167 66.810 C 223.167 67.273,223.197 67.290,224.186 67.379 C 225.682 67.515,225.583 67.012,225.583 74.522 C 225.583 82.080,225.662 81.667,224.218 81.667 C 223.531 81.667,223.500 81.688,223.500 82.167 L 223.500 82.667 229.725 82.667 L 235.951 82.667 236.054 81.208 C 236.110 80.406,236.206 79.469,236.267 79.125 C 236.377 78.500,236.377 78.500,235.791 78.500 C 235.219 78.500,235.202 78.520,235.086 79.292 C 234.898 80.558,234.598 81.121,234.057 81.224 C 233.089 81.408,230.011 81.525,229.104 81.412 L 228.167 81.295 228.167 78.231 L 228.167 75.167 230.405 75.167 C 233.032 75.167,233.167 75.232,233.167 76.512 C 233.167 77.313,233.179 77.333,233.667 77.333 L 234.167 77.333 234.167 74.500 L 234.167 71.667 233.667 71.667 C 233.188 71.667,233.167 71.698,233.167 72.385 C 233.167 73.674,233.016 73.750,230.472 73.750 L 228.250 73.750 228.250 70.750 L 228.250 67.750 230.833 67.753 C 234.160 67.756,234.396 67.851,234.467 69.210 L 234.517 70.167 235.067 70.167 L 235.618 70.167 235.720 68.625 C 235.776 67.777,235.870 66.915,235.930 66.708 L 236.039 66.333 229.603 66.333 L 223.167 66.333 223.167 66.810 M257.167 66.810 C 257.167 67.260,257.215 67.293,258.029 67.389 C 259.323 67.542,259.250 67.118,259.250 74.522 C 259.250 82.118,259.342 81.667,257.801 81.667 C 257.022 81.667,257.000 81.680,257.000 82.167 L 257.000 82.667 260.667 82.667 L 264.333 82.667 264.333 82.167 C 264.333 81.672,264.324 81.667,263.417 81.667 C 261.749 81.667,261.833 82.055,261.833 74.411 C 261.833 66.798,261.591 67.591,263.917 67.586 C 266.343 67.582,267.538 68.503,267.554 70.391 C 267.573 72.492,265.936 73.816,263.302 73.829 C 262.191 73.835,262.188 74.020,263.280 75.380 C 263.814 76.045,265.262 77.955,266.500 79.626 L 268.750 82.663 270.542 82.665 L 272.333 82.667 272.333 82.167 C 272.333 81.799,272.255 81.667,272.037 81.667 C 271.487 81.667,271.008 81.158,268.584 78.001 C 265.804 74.380,265.925 74.664,266.993 74.285 C 270.902 72.897,271.446 67.672,267.795 66.587 C 267.113 66.385,265.946 66.333,262.053 66.333 L 257.167 66.333 257.167 66.810 M323.833 66.810 C 323.833 67.273,323.864 67.290,324.853 67.379 C 326.348 67.515,326.250 67.012,326.250 74.522 C 326.250 82.155,326.355 81.667,324.718 81.667 C 323.846 81.667,323.833 81.674,323.833 82.167 L 323.833 82.667 327.417 82.667 L 331.000 82.667 331.000 82.167 C 331.000 81.689,330.968 81.667,330.287 81.667 C 329.895 81.667,329.407 81.550,329.204 81.407 L 328.833 81.148 328.833 74.606 C 328.833 67.172,328.773 67.505,330.139 67.374 C 330.957 67.295,331.000 67.267,331.000 66.812 L 331.000 66.333 327.417 66.333 L 323.833 66.333 323.833 66.810 M351.391 67.708 C 351.450 68.465,351.498 69.365,351.499 69.708 C 351.501 71.006,352.427 70.598,352.554 69.243 C 352.691 67.775,352.596 67.833,354.843 67.833 L 356.833 67.833 356.833 74.417 C 356.833 82.008,356.904 81.667,355.333 81.667 C 354.519 81.667,354.500 81.678,354.500 82.167 L 354.500 82.667 358.083 82.667 L 361.667 82.667 361.667 82.167 C 361.667 81.678,361.648 81.667,360.833 81.667 C 359.254 81.667,359.323 82.005,359.373 74.456 L 359.417 67.917 361.403 67.869 C 363.711 67.815,363.643 67.775,363.778 69.220 C 363.878 70.293,363.898 70.333,364.332 70.333 C 364.789 70.333,365.000 69.217,365.000 66.808 L 365.000 66.333 358.142 66.333 L 351.284 66.333 351.391 67.708 M26.462 70.443 C 27.060 70.870,28.327 71.968,29.277 72.883 L 31.004 74.546 32.627 72.974 C 33.520 72.110,34.767 71.012,35.400 70.535 L 36.550 69.667 40.367 69.667 L 44.184 69.667 43.769 70.210 C 42.397 72.009,31.751 81.000,30.993 81.000 C 30.233 81.000,19.177 71.621,18.076 70.042 L 17.814 69.667 21.594 69.667 L 25.374 69.667 26.462 70.443 " stroke="none" fill="#542404" fill-rule="evenodd"></path><path id="path3" d="M26.333 48.687 C 22.532 49.823,22.912 54.239,27.131 57.943 C 27.838 58.564,28.994 59.584,29.701 60.209 L 30.984 61.346 33.454 59.185 C 37.838 55.348,38.875 53.550,38.081 51.158 C 37.133 48.307,33.788 47.680,31.591 49.942 L 31.000 50.551 30.387 49.920 C 29.333 48.835,27.602 48.308,26.333 48.687 " stroke="none" fill="#e7513c" fill-rule="evenodd"></path><path id="path4" d="M1.914 25.083 C 1.914 37.092,1.934 41.980,1.958 35.945 C 1.983 29.911,1.983 20.086,1.958 14.112 C 1.934 8.138,1.914 13.075,1.914 25.083 M60.081 25.083 C 60.081 37.092,60.101 41.980,60.125 35.945 C 60.149 29.911,60.149 20.086,60.125 14.112 C 60.101 8.138,60.081 13.075,60.081 25.083 M3.573 5.049 C 3.314 5.725,3.607 48.108,3.878 49.000 C 4.176 49.983,4.178 50.030,3.820 47.583 C 3.739 47.033,3.672 37.227,3.670 25.792 L 3.667 5.000 31.005 5.000 L 58.343 5.000 58.296 26.610 C 58.271 38.496,58.307 47.827,58.376 47.346 C 58.445 46.865,58.482 37.122,58.459 25.694 L 58.417 4.917 31.037 4.875 C 8.694 4.840,3.641 4.872,3.573 5.049 M30.747 7.012 C 30.686 7.293,30.680 7.568,30.734 7.623 C 30.789 7.678,30.833 7.560,30.833 7.361 C 30.833 7.162,30.908 7.000,31.000 7.000 C 31.092 7.000,31.167 7.162,31.167 7.361 C 31.167 7.560,31.211 7.678,31.266 7.623 C 31.404 7.485,31.171 6.500,31.000 6.500 C 30.923 6.500,30.809 6.730,30.747 7.012 M30.438 8.354 C 30.299 9.049,30.433 9.184,30.583 8.500 C 30.647 8.212,30.664 7.941,30.621 7.899 C 30.579 7.857,30.496 8.061,30.438 8.354 M25.909 15.802 C 25.980 15.928,25.904 16.176,25.731 16.386 C 25.436 16.742,25.438 16.742,25.833 16.377 C 26.170 16.066,26.199 15.969,26.011 15.794 C 25.828 15.624,25.808 15.625,25.909 15.802 M30.833 16.667 C 30.833 16.850,30.908 17.000,31.000 17.000 C 31.092 17.000,31.167 17.238,31.167 17.528 C 31.167 17.818,31.213 18.009,31.270 17.952 C 31.425 17.798,31.171 16.333,30.990 16.333 C 30.904 16.333,30.833 16.483,30.833 16.667 M19.450 17.208 C 19.135 17.598,18.791 18.104,18.685 18.333 C 18.523 18.686,18.526 18.702,18.705 18.436 C 18.821 18.263,19.200 17.757,19.546 17.311 C 20.319 16.314,20.240 16.230,19.450 17.208 M40.875 16.619 C 41.127 16.658,41.540 16.658,41.792 16.619 C 42.044 16.581,41.837 16.550,41.333 16.550 C 40.829 16.550,40.623 16.581,40.875 16.619 M45.152 17.972 C 45.242 18.140,45.448 18.384,45.609 18.514 C 45.818 18.681,45.793 18.593,45.524 18.208 C 45.112 17.621,44.888 17.479,45.152 17.972 M6.500 17.930 C 6.500 18.088,7.509 19.667,7.611 19.667 C 7.699 19.667,7.566 19.424,7.136 18.803 C 6.965 18.556,6.846 18.266,6.871 18.157 C 6.896 18.048,6.823 17.924,6.708 17.882 C 6.594 17.840,6.500 17.861,6.500 17.930 M55.147 17.958 C 55.136 18.027,55.138 18.144,55.151 18.219 C 55.163 18.294,55.035 18.556,54.864 18.803 C 54.434 19.424,54.301 19.667,54.389 19.667 C 54.485 19.667,55.500 18.092,55.500 17.944 C 55.500 17.791,55.171 17.804,55.147 17.958 M21.491 18.792 L 20.917 19.417 21.542 18.842 C 21.885 18.526,22.167 18.245,22.167 18.217 C 22.167 18.090,22.026 18.210,21.491 18.792 M30.342 19.592 C 30.225 20.376,30.163 21.052,30.204 21.093 C 30.246 21.135,30.375 20.526,30.492 19.742 C 30.608 18.957,30.670 18.281,30.629 18.240 C 30.588 18.199,30.458 18.807,30.342 19.592 M8.250 18.920 C 8.433 19.069,8.733 19.265,8.917 19.355 L 9.250 19.518 8.917 19.247 C 8.733 19.098,8.433 18.902,8.250 18.812 L 7.917 18.648 8.250 18.920 M53.375 19.019 C 52.807 19.383,52.623 19.627,53.125 19.351 C 53.507 19.141,54.106 18.678,54.000 18.675 C 53.954 18.673,53.673 18.828,53.375 19.019 M18.194 19.257 C 18.087 19.491,18.003 19.773,18.007 19.883 C 18.010 19.993,18.124 19.828,18.259 19.516 C 18.544 18.860,18.484 18.621,18.194 19.257 M22.217 19.667 C 22.217 20.171,22.248 20.377,22.286 20.125 C 22.324 19.873,22.324 19.460,22.286 19.208 C 22.248 18.956,22.217 19.162,22.217 19.667 M31.529 19.500 C 31.524 19.729,31.581 20.217,31.657 20.583 C 31.746 21.011,31.798 21.101,31.805 20.833 C 31.810 20.604,31.752 20.117,31.676 19.750 C 31.588 19.322,31.535 19.233,31.529 19.500 M40.167 19.323 C 39.277 19.594,38.386 20.172,37.667 20.945 L 36.917 21.750 37.750 20.976 C 38.844 19.959,39.805 19.496,41.150 19.339 C 42.190 19.217,42.205 19.210,41.417 19.203 C 40.958 19.199,40.396 19.253,40.167 19.323 M41.341 20.299 C 40.787 20.853,40.333 21.399,40.333 21.512 C 40.333 21.624,40.550 21.417,40.815 21.051 C 41.288 20.398,41.987 19.759,42.383 19.617 C 42.493 19.578,42.530 19.489,42.466 19.419 C 42.401 19.349,41.895 19.745,41.341 20.299 M52.042 19.853 C 51.474 20.216,51.290 20.461,51.792 20.185 C 52.174 19.975,52.773 19.511,52.667 19.508 C 52.621 19.507,52.340 19.662,52.042 19.853 M53.800 20.458 C 52.908 21.817,52.798 22.000,52.875 22.000 C 52.948 22.000,53.184 21.665,54.074 20.292 C 54.238 20.040,54.336 19.833,54.291 19.833 C 54.247 19.833,54.026 20.115,53.800 20.458 M46.333 20.227 C 46.333 20.379,46.032 20.484,45.416 20.548 C 43.977 20.697,42.323 21.870,42.336 22.733 C 42.338 22.834,42.509 22.617,42.716 22.250 C 43.205 21.386,44.219 20.827,45.507 20.710 C 46.332 20.636,46.500 20.568,46.500 20.310 C 46.500 20.140,46.462 20.000,46.417 20.000 C 46.371 20.000,46.333 20.102,46.333 20.227 M8.145 20.583 C 8.235 20.767,8.431 21.067,8.580 21.250 L 8.852 21.583 8.688 21.250 C 8.598 21.067,8.402 20.767,8.253 20.583 L 7.982 20.250 8.145 20.583 M50.580 20.773 C 49.730 21.337,49.430 21.635,50.094 21.256 C 50.679 20.922,51.459 20.343,51.330 20.337 C 51.283 20.335,50.945 20.531,50.580 20.773 M17.718 21.917 C 17.719 22.467,17.750 22.672,17.787 22.372 C 17.825 22.072,17.824 21.622,17.786 21.372 C 17.748 21.122,17.717 21.367,17.718 21.917 M29.528 24.833 C 29.226 26.804,28.902 28.604,28.810 28.833 C 28.679 29.157,28.686 29.206,28.841 29.055 C 29.043 28.857,30.215 21.964,30.126 21.500 C 30.100 21.363,29.830 22.863,29.528 24.833 M31.862 21.667 C 31.858 21.896,31.953 22.608,32.075 23.250 C 32.196 23.892,32.300 24.229,32.304 24.000 C 32.309 23.771,32.213 23.058,32.092 22.417 C 31.970 21.775,31.867 21.438,31.862 21.667 M12.750 21.753 C 12.933 21.902,13.233 22.098,13.417 22.188 L 13.750 22.352 13.417 22.080 C 13.233 21.931,12.933 21.735,12.750 21.645 L 12.417 21.482 12.750 21.753 M48.875 21.853 C 48.307 22.216,48.123 22.461,48.625 22.185 C 49.007 21.975,49.606 21.511,49.500 21.508 C 49.454 21.507,49.173 21.662,48.875 21.853 M20.042 22.750 C 20.044 23.117,20.078 23.247,20.118 23.040 C 20.158 22.832,20.156 22.532,20.115 22.373 C 20.073 22.214,20.040 22.383,20.042 22.750 M26.537 22.589 C 26.786 22.851,27.020 23.032,27.056 22.991 C 27.093 22.950,26.889 22.736,26.603 22.514 L 26.083 22.112 26.537 22.589 M14.083 22.586 C 14.267 22.736,14.567 22.931,14.750 23.021 L 15.083 23.185 14.750 22.914 C 14.567 22.764,14.267 22.569,14.083 22.479 L 13.750 22.315 14.083 22.586 M47.542 22.686 C 46.974 23.050,46.790 23.294,47.292 23.018 C 47.674 22.808,48.273 22.345,48.167 22.341 C 48.121 22.340,47.840 22.495,47.542 22.686 M23.917 23.333 C 24.368 23.792,24.775 24.167,24.821 24.167 C 24.867 24.167,24.535 23.792,24.083 23.333 C 23.632 22.875,23.225 22.500,23.179 22.500 C 23.133 22.500,23.465 22.875,23.917 23.333 M17.914 23.583 C 17.961 23.950,18.049 24.430,18.109 24.651 C 18.196 24.966,18.169 25.023,17.985 24.918 C 17.803 24.814,17.793 24.831,17.944 24.994 C 18.341 25.424,18.408 25.051,18.122 24.000 C 17.928 23.285,17.857 23.143,17.914 23.583 M42.152 23.125 C 41.983 24.579,41.947 26.166,42.082 26.166 C 42.182 26.165,42.253 25.527,42.256 24.582 C 42.262 23.261,42.214 22.593,42.152 23.125 M15.417 23.420 C 15.600 23.569,15.900 23.765,16.083 23.855 L 16.417 24.018 16.083 23.747 C 15.900 23.598,15.600 23.402,15.417 23.312 L 15.083 23.148 15.417 23.420 M46.208 23.519 C 45.640 23.883,45.456 24.127,45.958 23.851 C 46.341 23.641,46.940 23.178,46.833 23.175 C 46.788 23.173,46.506 23.328,46.208 23.519 M16.750 24.253 C 16.933 24.402,17.233 24.598,17.417 24.688 L 17.750 24.852 17.417 24.580 C 17.233 24.431,16.933 24.235,16.750 24.145 L 16.417 23.982 16.750 24.253 M44.875 24.353 C 44.307 24.716,44.123 24.961,44.625 24.685 C 45.007 24.475,45.606 24.011,45.500 24.008 C 45.454 24.007,45.173 24.162,44.875 24.353 M32.362 24.833 C 32.358 25.063,32.453 25.775,32.575 26.417 C 32.696 27.058,32.800 27.396,32.804 27.167 C 32.809 26.938,32.713 26.225,32.592 25.583 C 32.470 24.942,32.367 24.604,32.362 24.833 M13.132 25.032 C 13.371 25.271,13.875 25.368,13.739 25.149 C 13.687 25.064,13.574 25.038,13.488 25.090 C 13.403 25.143,13.333 25.107,13.333 25.010 C 13.333 24.913,13.243 24.833,13.133 24.833 C 12.979 24.833,12.978 24.878,13.132 25.032 M48.667 25.010 C 48.667 25.107,48.597 25.143,48.512 25.090 C 48.426 25.038,48.313 25.064,48.261 25.149 C 48.125 25.368,48.629 25.271,48.868 25.032 C 49.022 24.878,49.021 24.833,48.867 24.833 C 48.757 24.833,48.667 24.913,48.667 25.010 M15.667 28.500 C 15.862 28.775,16.060 29.000,16.106 29.000 C 16.152 29.000,16.029 28.775,15.833 28.500 C 15.638 28.225,15.440 28.000,15.394 28.000 C 15.348 28.000,15.471 28.225,15.667 28.500 M45.977 28.792 C 45.497 29.371,45.294 29.667,45.376 29.667 C 45.423 29.667,45.661 29.404,45.905 29.083 C 46.359 28.488,46.414 28.263,45.977 28.792 M6.053 29.708 C 5.497 30.296,5.091 30.980,5.221 31.110 C 5.266 31.155,5.355 31.028,5.419 30.827 C 5.482 30.627,5.798 30.171,6.120 29.815 C 6.828 29.031,6.774 28.946,6.053 29.708 M17.034 30.375 C 17.258 30.673,17.948 31.610,18.567 32.458 C 19.187 33.306,19.734 34.000,19.783 34.000 C 19.832 34.000,19.690 33.756,19.466 33.458 C 19.242 33.160,18.552 32.223,17.933 31.375 C 17.313 30.527,16.766 29.833,16.717 29.833 C 16.668 29.833,16.810 30.077,17.034 30.375 M41.250 30.265 L 40.750 30.694 41.292 30.336 C 41.590 30.139,41.833 29.945,41.833 29.905 C 41.833 29.781,41.763 29.824,41.250 30.265 M45.048 30.042 C 44.325 30.986,43.944 31.550,44.087 31.464 C 44.284 31.345,45.391 29.833,45.281 29.833 C 45.240 29.833,45.136 29.927,45.048 30.042 M21.750 31.078 C 22.253 31.519,22.833 31.897,22.833 31.784 C 22.833 31.751,22.477 31.479,22.042 31.182 C 21.442 30.772,21.372 30.747,21.750 31.078 M55.489 32.417 C 56.473 33.541,56.617 33.674,56.209 33.083 C 56.019 32.808,55.615 32.358,55.312 32.083 C 54.904 31.714,54.950 31.801,55.489 32.417 M4.889 33.167 C 4.889 33.854,4.919 34.135,4.955 33.792 C 4.991 33.448,4.991 32.885,4.955 32.542 C 4.919 32.198,4.889 32.479,4.889 33.167 M13.875 32.115 C 14.035 32.157,14.298 32.157,14.458 32.115 C 14.619 32.073,14.487 32.039,14.167 32.039 C 13.846 32.039,13.715 32.073,13.875 32.115 M11.461 32.287 C 11.761 32.325,12.211 32.324,12.461 32.286 C 12.712 32.248,12.467 32.217,11.917 32.218 C 11.367 32.219,11.162 32.250,11.461 32.287 M43.215 32.542 C 42.492 33.486,42.111 34.050,42.254 33.964 C 42.450 33.845,43.557 32.333,43.447 32.333 C 43.407 32.333,43.302 32.427,43.215 32.542 M49.377 32.786 C 49.631 32.825,50.006 32.824,50.211 32.784 C 50.416 32.744,50.208 32.713,49.750 32.714 C 49.292 32.716,49.124 32.748,49.377 32.786 M7.192 33.458 C 7.212 33.968,7.230 33.998,7.286 33.621 L 7.356 33.159 8.104 33.817 C 9.108 34.700,10.071 35.007,11.738 34.973 L 13.083 34.945 11.500 34.845 C 9.678 34.730,8.655 34.327,7.846 33.405 C 7.215 32.686,7.161 32.691,7.192 33.458 M47.750 33.000 C 47.325 33.183,47.763 33.183,48.333 33.000 C 48.668 32.893,48.685 32.866,48.417 32.862 C 48.233 32.859,47.933 32.921,47.750 33.000 M51.417 33.066 C 51.783 33.182,52.327 33.404,52.625 33.560 C 52.923 33.715,53.167 33.799,53.167 33.747 C 53.167 33.584,51.436 32.836,51.083 32.846 C 50.900 32.851,51.050 32.951,51.417 33.066 M46.375 33.496 C 45.985 33.672,45.667 33.854,45.667 33.899 C 45.667 33.975,47.163 33.368,47.319 33.228 C 47.500 33.068,47.014 33.206,46.375 33.496 M53.894 34.443 C 54.248 34.825,54.488 35.218,54.426 35.318 C 54.364 35.418,54.393 35.500,54.490 35.500 C 54.862 35.500,54.639 35.042,53.958 34.409 L 53.250 33.750 53.894 34.443 M44.650 34.520 C 44.247 34.806,43.605 35.340,43.224 35.706 C 42.772 36.140,42.453 36.328,42.307 36.245 C 42.130 36.144,42.125 36.163,42.286 36.337 C 42.451 36.515,42.640 36.415,43.295 35.802 C 43.738 35.388,44.415 34.840,44.800 34.585 C 45.428 34.170,45.614 34.000,45.442 34.000 C 45.410 34.000,45.053 34.234,44.650 34.520 M13.833 34.667 C 13.160 34.771,13.143 34.784,13.667 34.792 C 13.987 34.797,14.662 34.743,15.167 34.674 C 16.071 34.549,16.074 34.547,15.333 34.548 C 14.921 34.549,14.246 34.603,13.833 34.667 M16.768 34.903 C 17.144 35.021,17.538 35.170,17.643 35.235 C 17.748 35.300,17.833 35.307,17.833 35.251 C 17.833 35.102,16.726 34.665,16.380 34.678 C 16.217 34.684,16.391 34.785,16.768 34.903 M38.833 35.292 C 39.051 35.590,39.255 35.833,39.287 35.833 C 39.414 35.833,39.001 35.208,38.727 34.986 C 38.547 34.840,38.587 34.956,38.833 35.292 M5.167 35.316 C 5.167 36.048,7.023 38.568,7.910 39.040 C 8.097 39.140,7.821 38.829,7.297 38.349 C 6.653 37.759,6.155 37.097,5.756 36.300 C 5.432 35.652,5.167 35.209,5.167 35.316 M50.735 35.664 C 50.193 35.937,49.225 36.654,48.583 37.258 L 47.417 38.355 48.697 37.270 C 50.070 36.106,50.957 35.583,51.956 35.348 C 52.454 35.231,52.495 35.197,52.152 35.183 C 51.914 35.174,51.277 35.390,50.735 35.664 M57.217 36.000 C 57.217 36.504,57.248 36.710,57.286 36.458 C 57.324 36.206,57.324 35.794,57.286 35.542 C 57.248 35.290,57.217 35.496,57.217 36.000 M18.997 36.292 C 19.348 36.821,19.667 37.000,19.667 36.667 C 19.667 36.575,19.602 36.519,19.522 36.542 C 19.442 36.565,19.211 36.396,19.008 36.167 L 18.638 35.750 18.997 36.292 M9.083 37.251 C 9.450 37.587,9.900 37.940,10.083 38.035 C 10.506 38.254,10.297 38.062,9.250 37.269 L 8.417 36.639 9.083 37.251 M56.700 38.034 L 56.336 38.894 55.876 38.489 L 55.417 38.083 55.816 38.537 C 56.035 38.786,56.288 38.945,56.376 38.890 C 56.568 38.771,57.223 37.335,57.129 37.240 C 57.093 37.204,56.899 37.561,56.700 38.034 M40.358 38.083 C 40.352 38.175,40.450 38.662,40.576 39.167 C 40.702 39.671,40.806 39.896,40.806 39.667 C 40.808 39.263,40.379 37.748,40.358 38.083 M11.000 38.472 C 11.137 38.557,11.438 38.676,11.667 38.738 C 11.956 38.815,12.007 38.802,11.833 38.695 C 11.696 38.610,11.396 38.490,11.167 38.429 C 10.877 38.351,10.826 38.365,11.000 38.472 M14.917 39.278 C 16.942 39.400,19.001 39.406,19.000 39.292 C 19.000 39.223,17.894 39.181,16.542 39.197 C 15.190 39.214,14.458 39.251,14.917 39.278 M17.458 40.118 C 17.665 40.157,18.002 40.157,18.208 40.118 C 18.415 40.078,18.246 40.045,17.833 40.045 C 17.421 40.045,17.252 40.078,17.458 40.118 M43.792 40.118 C 43.998 40.157,44.335 40.157,44.542 40.118 C 44.748 40.078,44.579 40.045,44.167 40.045 C 43.754 40.045,43.585 40.078,43.792 40.118 M15.208 40.282 C 15.369 40.323,15.631 40.323,15.792 40.282 C 15.952 40.240,15.821 40.205,15.500 40.205 C 15.179 40.205,15.048 40.240,15.208 40.282 M46.208 40.282 C 46.369 40.323,46.631 40.323,46.792 40.282 C 46.952 40.240,46.821 40.205,46.500 40.205 C 46.179 40.205,46.048 40.240,46.208 40.282 M4.734 44.167 C 4.734 45.587,4.759 46.169,4.791 45.458 C 4.822 44.748,4.822 43.585,4.791 42.875 C 4.759 42.165,4.734 42.746,4.734 44.167 M19.958 41.789 C 20.348 41.824,20.985 41.824,21.375 41.789 C 21.765 41.754,21.446 41.725,20.667 41.725 C 19.887 41.725,19.569 41.754,19.958 41.789 M40.625 41.789 C 41.015 41.824,41.652 41.824,42.042 41.789 C 42.431 41.754,42.112 41.725,41.333 41.725 C 40.554 41.725,40.235 41.754,40.625 41.789 M57.234 44.167 C 57.234 45.587,57.259 46.169,57.291 45.458 C 57.322 44.748,57.322 43.585,57.291 42.875 C 57.259 42.165,57.234 42.746,57.234 44.167 M15.167 53.309 L 15.167 64.618 16.792 64.724 C 17.685 64.782,18.642 64.868,18.917 64.914 L 19.417 64.999 18.917 64.826 C 18.642 64.731,17.722 64.608,16.873 64.552 L 15.329 64.451 15.373 53.225 C 15.397 47.051,15.360 42.000,15.292 42.000 C 15.223 42.000,15.167 47.089,15.167 53.309 M46.627 53.225 L 46.671 64.451 45.127 64.552 C 44.278 64.608,43.358 64.731,43.083 64.826 L 42.583 64.999 43.083 64.914 C 43.358 64.868,44.315 64.782,45.208 64.724 L 46.833 64.618 46.833 53.309 C 46.833 47.089,46.777 42.000,46.708 42.000 C 46.640 42.000,46.603 47.051,46.627 53.225 M30.708 42.753 C 30.995 43.066,31.005 43.066,31.292 42.753 C 31.569 42.450,31.569 42.445,31.292 42.655 C 31.050 42.836,30.950 42.836,30.708 42.655 C 30.431 42.445,30.431 42.450,30.708 42.753 M10.611 43.778 C 10.550 43.839,10.499 47.645,10.497 52.236 L 10.494 60.583 10.147 60.042 C 9.957 59.744,9.763 59.500,9.717 59.500 C 9.574 59.500,10.307 60.574,10.491 60.636 C 10.612 60.676,10.667 58.086,10.667 52.270 L 10.667 43.846 12.125 43.791 L 13.583 43.735 12.153 43.701 C 11.366 43.682,10.672 43.717,10.611 43.778 M49.875 43.787 L 51.333 43.846 51.333 52.256 C 51.333 60.462,51.381 61.231,51.837 60.292 C 52.011 59.933,52.007 59.931,51.761 60.238 C 51.527 60.529,51.499 59.768,51.460 52.155 L 51.417 43.750 49.917 43.739 L 48.417 43.728 49.875 43.787 M29.555 44.114 C 29.723 44.312,29.962 44.798,30.086 45.195 C 30.210 45.592,30.316 45.783,30.322 45.620 C 30.339 45.169,29.924 44.281,29.567 44.003 C 29.258 43.762,29.257 43.765,29.555 44.114 M32.264 44.151 C 31.850 44.609,31.496 45.919,31.523 46.901 C 31.544 47.705,31.552 47.688,31.673 46.583 C 31.812 45.310,32.045 44.577,32.454 44.125 C 32.599 43.965,32.681 43.833,32.635 43.833 C 32.589 43.833,32.422 43.976,32.264 44.151 M11.944 45.111 C 11.790 45.265,11.804 62.795,11.958 62.891 C 12.027 62.933,12.063 58.955,12.039 54.050 L 11.994 45.133 12.747 45.193 C 13.161 45.225,13.500 45.196,13.500 45.126 C 13.500 44.971,12.098 44.957,11.944 45.111 M48.500 45.117 C 48.500 45.192,48.839 45.225,49.253 45.193 L 50.006 45.133 49.961 54.058 C 49.937 58.967,49.974 62.927,50.043 62.857 C 50.113 62.787,50.150 58.760,50.126 53.907 L 50.083 45.083 49.292 45.033 C 48.856 45.005,48.500 45.043,48.500 45.117 M30.383 46.833 C 30.383 47.337,30.415 47.544,30.453 47.292 C 30.491 47.040,30.491 46.627,30.453 46.375 C 30.415 46.123,30.383 46.329,30.383 46.833 M4.875 47.583 C 4.877 47.950,4.911 48.080,4.951 47.873 C 4.991 47.666,4.990 47.366,4.948 47.206 C 4.906 47.047,4.874 47.217,4.875 47.583 M57.863 49.340 C 57.503 51.111,56.549 53.788,55.503 55.958 C 54.962 57.081,54.551 58.000,54.591 58.000 C 55.161 58.000,58.326 49.535,58.132 48.529 C 58.104 48.383,57.983 48.747,57.863 49.340 M5.523 50.667 C 5.523 50.804,5.588 51.067,5.667 51.250 C 5.757 51.460,5.810 51.491,5.810 51.333 C 5.810 51.196,5.745 50.933,5.667 50.750 C 5.576 50.540,5.523 50.509,5.523 50.667 M56.037 51.620 C 55.838 52.231,55.704 52.759,55.737 52.793 C 55.771 52.827,55.964 52.358,56.167 51.750 C 56.369 51.142,56.504 50.615,56.466 50.577 C 56.429 50.540,56.236 51.009,56.037 51.620 M4.342 50.778 C 4.330 51.057,5.323 53.836,5.612 54.333 C 5.886 54.803,5.890 54.817,4.987 52.333 C 4.637 51.371,4.347 50.671,4.342 50.778 M5.929 52.000 C 5.990 52.229,6.110 52.529,6.195 52.667 C 6.302 52.840,6.315 52.790,6.238 52.500 C 6.176 52.271,6.057 51.971,5.972 51.833 C 5.865 51.660,5.851 51.710,5.929 52.000 M6.341 53.062 C 6.330 53.271,7.203 55.186,7.276 55.113 C 7.309 55.080,7.114 54.572,6.843 53.985 C 6.571 53.397,6.345 52.982,6.341 53.062 M55.027 54.257 C 54.748 54.870,54.801 55.001,55.103 54.444 C 55.244 54.183,55.328 53.939,55.290 53.901 C 55.252 53.863,55.134 54.023,55.027 54.257 M5.833 54.893 C 5.833 55.074,6.994 57.333,7.088 57.333 C 7.133 57.333,6.899 56.790,6.566 56.125 C 5.942 54.878,5.833 54.696,5.833 54.893 M57.694 55.257 C 57.414 55.870,57.468 56.001,57.770 55.444 C 57.911 55.183,57.995 54.939,57.957 54.901 C 57.919 54.863,57.800 55.023,57.694 55.257 M4.668 56.417 C 4.671 56.928,9.158 64.269,9.657 64.577 C 9.742 64.630,9.146 63.678,8.334 62.461 C 7.521 61.245,6.363 59.350,5.761 58.250 C 5.160 57.150,4.668 56.325,4.668 56.417 M8.250 57.167 C 8.482 57.625,8.710 58.000,8.756 58.000 C 8.801 58.000,8.649 57.625,8.417 57.167 C 8.184 56.708,7.957 56.333,7.911 56.333 C 7.865 56.333,8.018 56.708,8.250 57.167 M56.784 57.255 C 56.538 57.756,56.372 58.167,56.416 58.167 C 56.528 58.167,57.369 56.480,57.294 56.405 C 57.259 56.371,57.030 56.753,56.784 57.255 M53.500 57.333 C 53.313 57.700,53.197 58.000,53.243 58.000 C 53.289 58.000,53.480 57.700,53.667 57.333 C 53.854 56.967,53.969 56.667,53.923 56.667 C 53.878 56.667,53.687 56.967,53.500 57.333 M55.611 59.377 C 55.290 59.952,54.573 61.114,54.017 61.961 C 53.461 62.807,53.044 63.500,53.090 63.500 C 53.201 63.500,55.149 60.507,55.829 59.292 C 56.124 58.765,56.327 58.333,56.280 58.333 C 56.234 58.333,55.933 58.803,55.611 59.377 M53.230 60.042 C 52.657 61.015,52.619 61.098,52.911 60.750 C 53.250 60.347,53.542 59.833,53.432 59.833 C 53.389 59.833,53.298 59.927,53.230 60.042 M10.000 62.167 C 10.196 62.442,10.394 62.667,10.439 62.667 C 10.485 62.667,10.362 62.442,10.167 62.167 C 9.971 61.892,9.773 61.667,9.727 61.667 C 9.681 61.667,9.804 61.892,10.000 62.167 M51.833 62.167 C 51.638 62.442,51.515 62.667,51.561 62.667 C 51.606 62.667,51.804 62.442,52.000 62.167 C 52.196 61.892,52.319 61.667,52.273 61.667 C 52.227 61.667,52.029 61.892,51.833 62.167 M30.580 63.200 C 30.532 63.323,30.515 65.259,30.542 67.503 L 30.590 71.583 30.628 67.375 C 30.665 63.303,30.677 63.167,30.997 63.167 C 31.317 63.167,31.329 63.306,31.377 67.333 L 31.425 71.500 31.421 67.292 L 31.417 63.083 31.041 63.030 C 30.834 63.001,30.627 63.077,30.580 63.200 M12.654 63.789 C 12.949 64.178,13.261 64.538,13.346 64.591 C 13.664 64.787,13.479 64.520,12.808 63.813 L 12.117 63.083 12.654 63.789 M19.750 65.167 C 19.933 65.245,20.196 65.310,20.333 65.310 C 20.491 65.310,20.460 65.257,20.250 65.167 C 20.067 65.088,19.804 65.023,19.667 65.023 C 19.509 65.023,19.540 65.076,19.750 65.167 M14.924 66.321 C 14.860 66.424,14.915 66.458,15.057 66.404 C 15.698 66.158,19.295 66.817,21.417 67.570 C 21.600 67.635,21.537 67.564,21.276 67.414 C 20.118 66.744,15.187 65.896,14.924 66.321 M44.812 66.339 C 43.496 66.493,41.303 67.074,40.689 67.432 C 40.448 67.573,40.400 67.635,40.583 67.570 C 42.705 66.817,46.302 66.158,46.943 66.404 C 47.077 66.455,47.139 66.423,47.082 66.331 C 46.968 66.148,46.440 66.149,44.812 66.339 M14.395 67.750 C 15.086 68.575,16.524 70.150,17.591 71.250 L 19.530 73.250 17.307 70.829 C 16.084 69.498,14.646 67.923,14.111 67.329 C 13.559 66.717,13.682 66.899,14.395 67.750 M15.000 66.719 C 15.000 66.748,15.244 66.991,15.542 67.260 L 16.083 67.750 15.594 67.208 C 15.138 66.703,15.000 66.590,15.000 66.719 M46.406 67.208 L 45.917 67.750 46.458 67.260 C 46.756 66.991,47.000 66.748,47.000 66.719 C 47.000 66.590,46.862 66.703,46.406 67.208 M45.115 70.375 C 43.574 72.048,43.148 72.554,44.169 71.500 C 46.056 69.551,48.082 67.333,47.975 67.334 C 47.943 67.334,46.656 68.702,45.115 70.375 M21.847 67.729 C 22.019 67.882,23.000 68.333,23.000 68.259 C 23.000 68.163,22.076 67.667,21.897 67.667 C 21.832 67.667,21.809 67.695,21.847 67.729 M39.444 67.936 C 39.183 68.077,39.006 68.228,39.050 68.272 C 39.093 68.316,39.381 68.198,39.690 68.010 C 40.339 67.614,40.145 67.556,39.444 67.936 M47.991 69.792 L 47.417 70.417 48.042 69.842 C 48.385 69.526,48.667 69.245,48.667 69.217 C 48.667 69.090,48.526 69.210,47.991 69.792 M13.500 69.385 C 13.500 69.414,13.744 69.658,14.042 69.927 L 14.583 70.417 14.094 69.875 C 13.638 69.370,13.500 69.257,13.500 69.385 M18.124 70.083 C 18.314 70.358,18.718 70.808,19.022 71.083 C 19.429 71.453,19.383 71.366,18.844 70.750 C 17.861 69.626,17.717 69.493,18.124 70.083 M43.094 70.792 C 42.550 71.410,42.351 71.692,42.651 71.417 C 43.174 70.938,44.255 69.667,44.139 69.667 C 44.108 69.667,43.638 70.173,43.094 70.792 M29.333 70.583 C 29.644 70.904,29.936 71.167,29.982 71.167 C 30.028 71.167,29.811 70.904,29.500 70.583 C 29.189 70.262,28.897 70.000,28.851 70.000 C 28.805 70.000,29.022 70.262,29.333 70.583 M32.573 70.542 L 32.083 71.083 32.625 70.594 C 32.923 70.325,33.167 70.081,33.167 70.052 C 33.167 69.923,33.029 70.037,32.573 70.542 M44.748 73.208 L 42.417 75.583 44.792 73.252 C 46.998 71.087,47.242 70.833,47.123 70.833 C 47.099 70.833,46.030 71.902,44.748 73.208 M17.250 73.333 C 18.439 74.525,19.449 75.500,19.495 75.500 C 19.541 75.500,18.606 74.525,17.417 73.333 C 16.228 72.142,15.217 71.167,15.171 71.167 C 15.126 71.167,16.061 72.142,17.250 73.333 M28.500 72.250 C 28.811 72.571,29.103 72.833,29.149 72.833 C 29.195 72.833,28.978 72.571,28.667 72.250 C 28.356 71.929,28.064 71.667,28.018 71.667 C 27.972 71.667,28.189 71.929,28.500 72.250 M33.324 72.292 L 32.750 72.917 33.375 72.342 C 33.957 71.808,34.077 71.667,33.949 71.667 C 33.922 71.667,33.640 71.948,33.324 72.292 M40.829 72.958 L 39.750 74.083 40.875 73.005 C 41.494 72.412,42.000 71.905,42.000 71.880 C 42.000 71.757,41.830 71.913,40.829 72.958 M21.167 73.083 C 21.757 73.679,22.278 74.167,22.324 74.167 C 22.370 74.167,21.924 73.679,21.333 73.083 C 20.743 72.487,20.222 72.000,20.176 72.000 C 20.130 72.000,20.576 72.487,21.167 73.083 M31.793 73.786 L 31.007 74.572 30.378 73.998 L 29.750 73.423 30.375 74.084 L 31.001 74.745 31.873 73.873 C 32.353 73.393,32.708 73.000,32.662 73.000 C 32.617 73.000,32.225 73.354,31.793 73.786 M20.667 74.250 C 21.165 74.754,21.609 75.167,21.655 75.167 C 21.701 75.167,21.331 74.754,20.833 74.250 C 20.335 73.746,19.891 73.333,19.845 73.333 C 19.799 73.333,20.169 73.746,20.667 74.250 M41.161 74.292 L 40.250 75.250 41.208 74.339 C 42.099 73.493,42.243 73.333,42.119 73.333 C 42.093 73.333,41.662 73.765,41.161 74.292 M38.824 74.792 L 38.250 75.417 38.875 74.842 C 39.457 74.308,39.577 74.167,39.449 74.167 C 39.422 74.167,39.140 74.448,38.824 74.792 M22.667 74.385 C 22.667 74.414,22.910 74.658,23.208 74.927 L 23.750 75.417 23.260 74.875 C 22.804 74.370,22.667 74.257,22.667 74.385 M22.000 75.385 C 22.000 75.414,22.244 75.658,22.542 75.927 L 23.083 76.417 22.594 75.875 C 22.138 75.370,22.000 75.257,22.000 75.385 M39.406 75.875 L 38.917 76.417 39.458 75.927 C 39.756 75.658,40.000 75.414,40.000 75.385 C 40.000 75.257,39.862 75.370,39.406 75.875 M20.751 76.583 C 21.833 77.631,24.333 79.745,24.333 79.613 C 24.333 79.571,23.677 78.986,22.875 78.314 C 22.073 77.642,21.034 76.753,20.567 76.338 C 20.015 75.847,20.079 75.933,20.751 76.583 M41.821 75.934 C 41.598 76.172,40.573 77.081,39.542 77.952 C 38.510 78.824,37.667 79.572,37.667 79.614 C 37.667 79.735,40.110 77.683,41.316 76.549 C 41.922 75.980,42.373 75.511,42.321 75.507 C 42.268 75.503,42.043 75.695,41.821 75.934 M34.972 77.968 C 33.840 78.905,33.568 79.185,34.250 78.711 C 34.830 78.308,36.123 77.179,36.000 77.183 C 35.954 77.184,35.491 77.537,34.972 77.968 M26.167 78.910 C 26.167 78.993,28.409 80.705,29.333 81.327 C 30.383 82.035,29.619 81.392,27.875 80.100 C 26.935 79.404,26.167 78.869,26.167 78.910 M33.824 80.305 C 32.765 81.100,31.715 81.887,31.491 82.054 C 31.089 82.354,31.091 82.354,31.583 82.070 C 32.639 81.459,36.241 78.701,35.792 78.847 C 35.769 78.854,34.883 79.511,33.824 80.305 M29.055 79.621 C 29.111 79.712,29.572 80.072,30.079 80.421 L 31.000 81.055 31.921 80.421 C 32.428 80.072,32.889 79.712,32.945 79.621 C 33.001 79.530,32.587 79.780,32.024 80.177 L 31.000 80.899 29.976 80.177 C 29.413 79.780,28.999 79.530,29.055 79.621 " stroke="none" fill="#946b4c" fill-rule="evenodd"></path></g></svg>