<svg xmlns="http://www.w3.org/2000/svg" xmlns:xlink="http://www.w3.org/1999/xlink" id="svg" version="1.1" width="400" height="78.46481876332624" viewBox="0, 0, 400,78.46481876332624"><g id="svgg"><path id="path0" d="M284.500 0.242 C 284.500 0.523,284.154 0.592,281.559 0.833 C 280.538 0.928,279.288 1.148,278.782 1.322 C 278.275 1.497,277.427 1.693,276.896 1.760 C 276.366 1.826,275.553 2.056,275.091 2.272 C 274.628 2.487,274.100 2.664,273.917 2.666 C 273.733 2.667,273.133 2.854,272.583 3.080 C 272.033 3.307,271.445 3.494,271.276 3.496 C 271.107 3.498,270.769 3.640,270.526 3.810 C 270.282 3.981,269.819 4.206,269.495 4.311 C 269.172 4.416,268.497 4.726,267.995 5.001 C 267.494 5.276,266.708 5.691,266.250 5.924 C 265.506 6.301,264.352 7.040,262.696 8.196 C 262.392 8.409,261.979 8.742,261.780 8.937 C 261.580 9.131,261.296 9.356,261.149 9.437 C 259.488 10.347,255.489 14.812,253.977 17.442 C 253.827 17.703,253.434 18.357,253.102 18.895 C 252.771 19.433,252.500 19.922,252.500 19.981 C 252.500 20.040,252.341 20.385,252.147 20.747 C 251.953 21.109,251.690 21.756,251.563 22.183 C 251.436 22.610,251.227 23.048,251.097 23.155 C 250.968 23.262,250.809 23.739,250.743 24.215 C 250.678 24.691,250.484 25.342,250.312 25.663 C 250.140 25.983,249.999 26.471,249.999 26.748 C 249.998 27.024,249.849 27.850,249.668 28.583 C 248.958 31.462,248.891 40.128,249.563 42.333 C 249.689 42.746,249.847 43.571,249.914 44.167 C 249.981 44.762,250.171 45.550,250.336 45.917 C 250.501 46.283,250.689 46.958,250.754 47.417 C 250.819 47.875,251.006 48.475,251.170 48.750 C 251.334 49.025,251.544 49.512,251.638 49.833 C 251.892 50.701,252.534 52.169,252.959 52.853 C 253.165 53.185,253.333 53.514,253.333 53.584 C 253.333 54.936,260.244 62.507,262.750 63.901 C 263.025 64.054,263.587 64.399,264.000 64.668 C 264.760 65.164,265.771 65.725,266.833 66.239 C 267.154 66.394,267.529 66.580,267.667 66.651 C 267.804 66.723,268.067 66.859,268.250 66.953 C 268.931 67.304,270.449 67.881,271.476 68.180 C 272.059 68.350,272.621 68.559,272.726 68.645 C 272.831 68.732,273.292 68.852,273.750 68.914 C 274.208 68.975,275.128 69.207,275.793 69.429 C 276.459 69.652,277.284 69.836,277.626 69.840 C 277.969 69.844,278.925 70.001,279.750 70.189 C 282.524 70.823,292.105 70.823,294.583 70.189 C 294.950 70.095,296.067 69.936,297.066 69.834 C 298.064 69.733,299.095 69.540,299.355 69.405 C 299.616 69.270,300.449 69.082,301.206 68.986 C 301.964 68.890,302.935 68.667,303.364 68.489 C 303.794 68.312,304.419 68.167,304.753 68.167 C 305.087 68.167,305.898 67.984,306.555 67.761 C 307.212 67.537,308.125 67.303,308.583 67.239 C 309.042 67.175,309.697 66.982,310.040 66.809 C 310.382 66.637,311.115 66.448,311.669 66.390 C 312.540 66.299,312.741 66.209,313.171 65.720 L 313.667 65.155 313.680 56.453 C 313.695 46.618,313.720 46.354,314.667 46.131 C 315.824 45.858,317.172 45.121,317.276 44.705 C 317.394 44.236,317.223 42.823,317.024 42.624 C 316.793 42.393,293.682 42.446,293.402 42.679 C 292.993 43.019,293.088 44.891,293.542 45.413 C 293.915 45.842,293.935 45.845,297.693 46.018 C 302.210 46.225,303.060 46.454,303.917 47.693 L 304.417 48.417 304.464 54.780 L 304.511 61.144 304.047 62.343 C 303.359 64.120,301.223 65.260,297.804 65.674 C 297.041 65.767,296.192 65.923,295.917 66.021 C 295.175 66.285,287.805 66.407,286.583 66.175 C 286.033 66.071,284.721 65.842,283.667 65.668 C 282.612 65.493,281.337 65.199,280.833 65.014 C 280.329 64.829,279.782 64.675,279.617 64.672 C 279.453 64.669,278.966 64.479,278.535 64.250 C 278.105 64.021,277.629 63.833,277.478 63.833 C 277.125 63.833,273.693 62.064,273.239 61.648 C 273.050 61.475,272.806 61.333,272.698 61.333 C 272.589 61.333,272.366 61.202,272.202 61.042 C 272.039 60.881,271.486 60.430,270.974 60.038 C 269.249 58.718,265.546 54.639,265.213 53.691 C 265.160 53.540,264.988 53.267,264.830 53.083 C 264.524 52.728,264.230 52.207,263.651 51.000 C 263.454 50.587,263.196 50.137,263.078 50.000 C 262.961 49.862,262.784 49.450,262.686 49.083 C 262.588 48.717,262.356 48.120,262.171 47.756 C 261.985 47.393,261.833 46.972,261.833 46.819 C 261.833 46.667,261.690 46.214,261.515 45.813 C 261.340 45.412,261.112 44.521,261.008 43.833 C 260.903 43.146,260.700 42.246,260.555 41.833 C 259.647 39.237,259.651 27.326,260.561 25.537 C 260.687 25.287,260.880 24.558,260.989 23.917 C 261.098 23.275,261.286 22.599,261.405 22.414 C 261.525 22.230,261.675 21.817,261.738 21.498 C 262.190 19.204,264.927 14.707,267.451 12.113 C 268.432 11.104,268.964 10.659,270.918 9.215 C 271.598 8.712,273.339 7.740,273.840 7.583 C 274.066 7.512,274.429 7.314,274.647 7.144 C 274.866 6.973,275.211 6.833,275.414 6.833 C 275.617 6.833,276.114 6.658,276.518 6.443 C 276.922 6.228,277.552 5.998,277.918 5.931 C 278.284 5.864,279.071 5.667,279.667 5.492 C 281.849 4.851,287.973 4.424,290.583 4.730 C 291.042 4.784,292.579 4.915,294.000 5.022 C 295.743 5.152,297.013 5.343,297.904 5.608 C 298.631 5.823,299.419 6.000,299.656 6.000 C 299.892 6.000,300.423 6.178,300.835 6.396 C 301.246 6.614,301.846 6.849,302.167 6.917 C 302.784 7.049,303.145 7.214,305.530 8.448 C 307.750 9.598,308.667 11.652,308.667 15.478 C 308.667 19.284,308.687 19.333,310.254 19.333 C 311.399 19.333,311.538 19.290,312.029 18.780 C 312.044 18.763,312.109 17.625,312.172 16.250 C 312.281 13.888,312.556 11.313,312.730 11.032 C 312.773 10.962,312.894 10.120,312.999 9.161 C 313.103 8.202,313.303 7.192,313.444 6.917 C 313.584 6.642,313.739 5.951,313.788 5.383 L 313.878 4.349 312.913 3.922 C 312.383 3.688,311.642 3.449,311.266 3.391 C 310.891 3.334,310.372 3.180,310.113 3.050 C 309.855 2.920,309.105 2.709,308.447 2.583 C 307.789 2.457,306.987 2.246,306.667 2.114 C 306.346 1.983,305.544 1.824,304.885 1.762 C 304.226 1.699,303.288 1.510,302.802 1.341 C 302.270 1.157,300.951 0.959,299.500 0.845 C 296.364 0.601,296.000 0.538,296.000 0.242 C 296.000 0.035,295.170 0.000,290.250 0.000 C 285.330 0.000,284.500 0.035,284.500 0.242 M11.222 2.097 C 11.183 2.197,11.174 2.909,11.201 3.681 L 11.250 5.083 13.750 5.212 C 16.078 5.332,17.785 5.604,18.869 6.026 C 19.149 6.135,19.530 6.561,19.869 7.143 L 20.417 8.083 20.461 34.964 L 20.505 61.844 19.998 62.895 C 19.348 64.244,18.393 65.123,17.068 65.593 C 15.585 66.119,14.621 68.126,15.542 68.772 C 15.846 68.985,63.439 68.961,63.652 68.748 C 63.745 68.655,63.904 67.830,64.006 66.915 C 64.107 65.999,64.296 64.970,64.426 64.629 C 64.555 64.287,64.740 62.975,64.836 61.712 C 64.932 60.450,65.073 59.004,65.150 58.500 C 65.524 56.039,65.684 54.311,65.636 53.250 L 65.583 52.083 64.000 52.083 L 62.417 52.083 62.272 52.750 C 62.192 53.117,61.986 53.768,61.814 54.198 C 61.641 54.627,61.500 55.159,61.500 55.379 C 61.500 55.600,61.343 56.373,61.151 57.098 C 60.959 57.823,60.697 58.942,60.570 59.583 C 60.442 60.225,60.214 61.012,60.064 61.333 C 59.914 61.654,59.705 62.104,59.598 62.332 C 58.854 63.934,51.764 64.735,39.417 64.614 C 32.746 64.548,32.326 64.510,30.623 63.813 L 30.164 63.625 30.218 36.937 C 30.279 7.027,30.254 7.697,31.348 6.568 C 32.111 5.781,33.239 5.500,36.592 5.262 C 38.155 5.151,39.524 5.005,39.634 4.937 C 39.911 4.765,39.896 2.649,39.614 2.264 C 39.349 1.902,11.360 1.738,11.222 2.097 M70.069 1.986 C 70.031 2.024,70.000 2.713,70.000 3.517 C 70.000 5.254,69.742 5.101,72.917 5.254 C 75.064 5.357,76.175 5.537,77.637 6.018 C 78.104 6.172,78.286 6.400,78.802 7.475 L 79.414 8.750 79.465 33.417 C 79.521 60.471,79.484 62.016,78.736 63.627 C 78.443 64.258,78.119 64.710,77.917 64.772 C 77.734 64.827,77.283 65.007,76.917 65.170 C 76.458 65.375,75.601 65.503,74.167 65.581 C 73.021 65.643,71.945 65.732,71.776 65.780 C 71.007 65.995,70.665 68.565,71.375 68.798 C 72.308 69.105,121.138 68.933,121.450 68.622 C 121.705 68.367,121.762 67.839,121.874 64.705 C 121.945 62.713,122.071 60.633,122.155 60.083 C 122.238 59.533,122.418 58.371,122.555 57.500 C 123.317 52.626,123.370 52.832,121.355 52.836 C 119.539 52.839,119.553 52.828,119.352 54.427 C 119.260 55.163,119.103 55.978,119.004 56.240 C 118.905 56.501,118.744 57.281,118.648 57.974 C 118.552 58.666,118.338 59.499,118.173 59.825 C 118.008 60.150,117.823 60.721,117.761 61.093 C 117.679 61.582,117.406 62.039,116.770 62.750 L 115.892 63.732 113.154 64.035 C 104.787 64.961,92.449 64.933,89.911 63.983 L 89.000 63.643 89.000 50.671 L 89.000 37.699 89.525 37.516 C 89.880 37.393,92.753 37.335,98.400 37.339 C 111.100 37.347,110.544 37.112,110.925 42.643 C 111.167 46.154,111.115 46.051,112.695 46.169 C 114.448 46.299,114.368 46.487,114.304 42.410 C 114.274 40.489,114.250 35.579,114.250 31.500 L 114.250 24.083 113.172 24.033 C 111.125 23.937,111.213 23.801,110.923 27.511 C 110.605 31.575,110.245 32.025,107.038 32.365 C 104.498 32.635,90.729 32.607,89.741 32.331 L 89.000 32.123 89.000 19.641 L 89.000 7.158 89.375 7.016 C 89.581 6.938,90.313 6.820,91.000 6.754 C 91.688 6.688,92.761 6.529,93.386 6.401 C 94.742 6.121,102.039 6.079,103.083 6.344 C 103.450 6.437,105.346 6.617,107.296 6.744 C 109.411 6.883,111.159 7.079,111.629 7.232 C 112.062 7.373,112.878 7.561,113.442 7.649 C 114.532 7.820,115.619 8.291,116.011 8.763 C 116.200 8.990,116.261 9.862,116.303 12.898 C 116.365 17.354,116.183 16.994,118.380 16.997 C 120.344 17.001,120.127 17.467,120.319 12.833 C 120.405 10.771,120.545 8.896,120.630 8.667 C 120.716 8.438,120.876 7.500,120.985 6.583 C 121.196 4.819,121.408 3.593,121.582 3.146 C 121.645 2.981,121.525 2.687,121.274 2.396 L 120.862 1.917 95.501 1.917 C 81.552 1.917,70.108 1.948,70.069 1.986 M130.218 2.086 C 130.079 2.188,129.948 2.718,129.889 3.423 C 129.755 5.023,129.736 5.012,133.136 5.269 C 138.126 5.646,138.847 6.099,139.162 9.058 C 139.452 11.785,139.325 62.099,139.025 63.167 C 138.523 64.953,137.417 65.444,133.533 65.601 C 130.891 65.709,130.652 65.744,130.335 66.082 C 129.910 66.534,129.659 68.539,130.001 68.750 C 130.157 68.847,157.027 68.940,158.292 68.848 C 158.542 68.830,158.584 66.391,158.340 66.006 C 158.219 65.814,157.509 65.730,155.051 65.618 C 148.788 65.332,149.000 65.994,149.000 46.750 L 149.000 36.178 149.375 35.964 C 149.867 35.683,186.241 35.646,186.712 35.926 C 187.038 36.119,187.155 59.590,186.844 62.292 C 186.554 64.816,185.532 65.401,181.045 65.616 C 179.030 65.712,177.936 65.830,177.800 65.967 C 177.530 66.237,177.401 68.468,177.642 68.708 C 177.920 68.987,205.969 68.989,206.200 68.710 C 206.429 68.434,206.296 66.229,206.033 65.967 C 205.897 65.830,204.803 65.712,202.789 65.615 C 198.060 65.389,197.245 64.839,196.982 61.694 C 196.791 59.413,196.799 11.447,196.991 9.291 C 197.273 6.127,198.274 5.484,203.304 5.242 C 206.407 5.093,206.334 5.132,206.331 3.619 C 206.329 2.958,206.263 2.314,206.184 2.188 C 205.968 1.847,177.866 1.847,177.650 2.188 C 177.570 2.314,177.504 2.958,177.503 3.619 C 177.499 5.130,177.428 5.092,180.500 5.241 C 181.829 5.306,183.367 5.472,183.917 5.609 C 184.467 5.747,185.079 5.899,185.277 5.946 C 186.863 6.328,186.993 7.400,187.003 20.112 L 187.010 30.402 186.547 30.659 C 185.767 31.092,150.098 31.045,149.434 30.610 L 148.967 30.304 149.058 20.027 C 149.191 4.998,148.939 5.563,155.667 5.246 C 158.783 5.099,158.521 5.264,158.465 3.474 L 158.417 1.957 144.433 1.937 C 135.207 1.923,130.371 1.974,130.218 2.086 M214.317 2.197 C 214.028 2.737,214.133 4.804,214.458 4.973 C 214.619 5.057,215.851 5.178,217.196 5.242 C 222.229 5.484,223.250 6.129,223.520 9.230 C 223.703 11.334,223.700 59.498,223.517 61.704 C 223.259 64.803,222.415 65.414,218.159 65.582 C 214.774 65.715,214.593 65.747,214.359 66.261 C 214.104 66.820,214.109 68.611,214.365 68.770 C 214.738 69.000,242.674 68.942,242.866 68.710 C 243.096 68.434,242.962 66.229,242.700 65.967 C 242.563 65.830,241.475 65.713,239.455 65.619 C 234.967 65.410,233.948 64.826,233.655 62.292 C 233.444 60.470,233.462 10.378,233.674 8.684 C 234.003 6.064,235.120 5.470,240.167 5.235 C 241.496 5.173,242.677 5.048,242.792 4.957 C 243.032 4.767,243.079 2.550,242.850 2.188 C 242.605 1.802,214.524 1.810,214.317 2.197 M323.147 2.303 C 322.870 3.031,322.966 4.804,323.292 4.975 C 323.452 5.060,324.596 5.180,325.833 5.242 C 330.224 5.462,331.474 6.070,331.991 8.239 C 332.373 9.837,332.452 60.329,332.076 62.250 C 331.521 65.087,330.964 65.417,326.436 65.599 C 324.161 65.690,323.453 65.772,323.296 65.962 C 323.029 66.283,322.904 68.471,323.138 68.705 C 323.417 68.984,351.138 68.985,351.370 68.706 C 351.600 68.428,351.443 66.250,351.169 65.919 C 351.009 65.727,350.577 65.665,349.355 65.659 C 344.309 65.633,343.249 65.248,342.476 63.158 L 342.017 61.917 342.009 48.962 L 342.000 36.006 342.458 35.878 C 343.315 35.639,379.367 35.722,379.792 35.964 L 380.167 36.178 380.164 48.214 C 380.162 58.146,380.119 60.425,379.920 61.250 C 379.787 61.800,379.676 62.520,379.673 62.850 C 379.655 64.681,378.148 65.425,374.081 65.612 L 371.095 65.750 370.714 66.316 C 370.296 66.938,370.171 68.547,370.525 68.765 C 370.667 68.853,397.773 68.932,398.958 68.848 C 399.212 68.830,399.253 66.473,399.008 66.015 C 398.868 65.754,398.479 65.705,395.749 65.603 C 390.914 65.423,390.100 64.817,389.820 61.187 C 389.646 58.928,389.644 11.373,389.818 9.553 C 389.959 8.076,390.623 6.457,391.218 6.139 C 392.079 5.678,393.905 5.353,396.250 5.243 C 397.625 5.178,398.844 5.050,398.958 4.959 C 399.166 4.793,399.261 2.607,399.081 2.139 C 398.977 1.865,370.918 1.849,370.645 2.122 C 370.557 2.210,370.441 2.801,370.388 3.436 C 370.255 5.025,370.230 5.011,373.718 5.271 C 380.316 5.762,380.040 5.120,380.122 20.215 L 380.177 30.346 379.547 30.631 C 378.705 31.013,343.032 31.078,342.369 30.699 L 341.989 30.482 342.036 19.533 L 342.083 8.583 342.598 7.418 C 343.155 6.156,343.089 6.202,345.167 5.610 C 345.690 5.461,347.178 5.299,348.633 5.233 C 351.660 5.095,351.888 4.860,351.355 2.438 L 351.250 1.959 337.272 1.938 L 323.293 1.917 323.147 2.303 " stroke="none" fill="#5d2c0d" fill-rule="evenodd"/></g></svg>
